# xmcd
#
# Track frame offsets:
#	150
#	24462
#	50885
#	77494
#	109169
#	127396
#	145463
#	158844
#	183187
#	200557
#	219413
#	243157
#
# Disc length: 3515 seconds
#
# Revision: 1
# Processed by: cddbd v1.5.2PL0 Copyright (c) Steve Scherf et al.
# Submitted via: audiograbber 1.83.01
#
DISCID=ad0db90c
DTITLE=Mojo Perry - Two Equals One
DYEAR=2012
DGENRE=Blues
TTITLE0=Coming Home
TTITLE1=Slow Down
TTITLE2=What You've Done
TTITLE3=I'll Remember You
TTITLE4=I Would Love You
TTITLE5=Sitting On A Park Bench
TTITLE6=Clean
TTITLE7=Codine
TTITLE8=Wishes
TTITLE9=In My Dream
TTITLE10=Eleven
TTITLE11=Waiting
EXTD=
EXTT0=
EXTT1=
EXTT2=
EXTT3=
EXTT4=
EXTT5=
EXTT6=
EXTT7=
EXTT8=
EXTT9=
EXTT10=
EXTT11=
PLAYORDER=
